<?xml version="1.0" encoding="UTF-8"?>
<svg width="750" height="350" viewBox="0 0 750 350" xmlns="http://www.w3.org/2000/svg">
  <defs>
    <!-- Gradiente para la nube -->
    <radialGradient id="cloudGradient" cx="50%" cy="30%" r="70%">
      <stop offset="0%" style="stop-color:#ffffff;stop-opacity:1" />
      <stop offset="70%" style="stop-color:#f8f8ff;stop-opacity:1" />
      <stop offset="100%" style="stop-color:#e6e6fa;stop-opacity:1" />
    </radialGradient>
    
    <!-- Gradiente más suave para bordes -->
    <radialGradient id="softGradient" cx="50%" cy="40%" r="60%">
      <stop offset="0%" style="stop-color:#ffffff;stop-opacity:1" />
      <stop offset="50%" style="stop-color:#f5f5ff;stop-opacity:1" />
      <stop offset="100%" style="stop-color:#e8e8f0;stop-opacity:1" />
    </radialGradient>
    
    <!-- Sombra suave -->
    <filter id="dropshadow" x="-20%" y="-20%" width="140%" height="140%">
      <feGaussianBlur in="SourceAlpha" stdDeviation="4"/>
      <feOffset dx="3" dy="5" result="offset" />
      <feComponentTransfer>
        <feFuncA type="linear" slope="0.2"/>
      </feComponentTransfer>
      <feMerge> 
        <feMergeNode/>
        <feMergeNode in="SourceGraphic"/> 
      </feMerge>
    </filter>
    
    <!-- Filtro para suavizar bordes -->
    <filter id="soften" x="-10%" y="-10%" width="120%" height="120%">
      <feGaussianBlur in="SourceGraphic" stdDeviation="1"/>
    </filter>
  </defs>
  
  <!-- Forma de nube orgánica usando path - mucho más grande -->
  <g filter="url(#dropshadow)">
    <path d="M 50 200 
             C 50 160, 90 120, 140 120
             C 160 100, 200 85, 240 100
             C 280 80, 330 75, 375 80
             C 410 60, 460 75, 500 95
             C 540 80, 590 90, 630 110
             C 670 125, 700 145, 700 180
             C 705 200, 700 225, 680 250
             C 660 275, 620 290, 580 285
             C 540 300, 500 295, 460 290
             C 420 305, 380 300, 340 295
             C 300 310, 260 305, 220 300
             C 180 315, 140 305, 100 290
             C 60 305, 30 290, 40 250
             C 25 225, 25 210, 50 200 Z" 
          fill="url(#cloudGradient)" 
          filter="url(#soften)"/>
    
    <!-- Capas adicionales para dar volumen - mucho más grandes -->
    <ellipse cx="180" cy="220" rx="80" ry="70" fill="url(#softGradient)" opacity="0.8" filter="url(#soften)"/>
    <ellipse cx="375" cy="200" rx="100" ry="80" fill="url(#softGradient)" opacity="0.7" filter="url(#soften)"/>
    <ellipse cx="570" cy="215" rx="75" ry="65" fill="url(#softGradient)" opacity="0.8" filter="url(#soften)"/>
    
    <!-- Protuberancias superiores - más grandes -->
    <ellipse cx="280" cy="140" rx="70" ry="50" fill="url(#cloudGradient)" opacity="0.9" filter="url(#soften)"/>
    <ellipse cx="470" cy="130" rx="60" ry="45" fill="url(#cloudGradient)" opacity="0.9" filter="url(#soften)"/>
    <ellipse cx="375" cy="110" rx="50" ry="35" fill="url(#cloudGradient)" opacity="0.8" filter="url(#soften)"/>
    
    <!-- Pequeñas protuberancias para textura - más grandes -->
    <ellipse cx="220" cy="160" rx="40" ry="30" fill="url(#softGradient)" opacity="0.6" filter="url(#soften)"/>
    <ellipse cx="580" cy="155" rx="35" ry="25" fill="url(#softGradient)" opacity="0.6" filter="url(#soften)"/>
    <ellipse cx="420" cy="105" rx="30" ry="20" fill="url(#softGradient)" opacity="0.5" filter="url(#soften)"/>
    
    <!-- Extensiones laterales para cubrir más área -->
    <ellipse cx="120" cy="190" rx="45" ry="35" fill="url(#softGradient)" opacity="0.7" filter="url(#soften)"/>
    <ellipse cx="630" cy="185" rx="40" ry="30" fill="url(#softGradient)" opacity="0.7" filter="url(#soften)"/>
  </g>
  
  <!-- Highlights suaves para efecto 3D - actualizados para la nueva forma -->
  <ellipse cx="350" cy="160" rx="20" ry="15" fill="#ffffff" opacity="0.6"/>
  <ellipse cx="280" cy="180" rx="18" ry="12" fill="#ffffff" opacity="0.5"/>
  <ellipse cx="500" cy="155" rx="16" ry="10" fill="#ffffff" opacity="0.4"/>
  <ellipse cx="420" cy="140" rx="14" ry="8" fill="#ffffff" opacity="0.3"/>
  <ellipse cx="200" cy="190" rx="12" ry="6" fill="#ffffff" opacity="0.2"/>
  <ellipse cx="580" cy="175" rx="10" ry="5" fill="#ffffff" opacity="0.2"/>
  
  <!-- Borde suave para definir la forma - actualizado para la nueva forma más grande -->
  <path d="M 50 200 
           C 50 160, 90 120, 140 120
           C 160 100, 200 85, 240 100
           C 280 80, 330 75, 375 80
           C 410 60, 460 75, 500 95
           C 540 80, 590 90, 630 110
           C 670 125, 700 145, 700 180
           C 705 200, 700 225, 680 250
           C 660 275, 620 290, 580 285
           C 540 300, 500 295, 460 290
           C 420 305, 380 300, 340 295
           C 300 310, 260 305, 220 300
           C 180 315, 140 305, 100 290
           C 60 305, 30 290, 40 250
           C 25 225, 25 210, 50 200 Z" 
        fill="none" 
        stroke="#d0d0d0" 
        stroke-width="2.5" 
        opacity="0.7"/>
</svg>